<svg width="54" height="53" viewBox="0 0 54 53" fill="none" xmlns="http://www.w3.org/2000/svg">
<g clip-path="url(#clip0_599_2)">
<mask id="mask0_599_2" style="mask-type:alpha" maskUnits="userSpaceOnUse" x="-8" y="-9" width="65" height="65">
<rect x="-7.04297" y="-8.21741" width="63.3913" height="63.3913" fill="#D9D9D9"/>
</mask>
<g mask="url(#mask0_599_2)">
<path d="M39.1798 47.25H41.8211V40.6468H48.4243V38.0055H41.8211V31.4022H39.1798V38.0055H32.5765V40.6468H39.1798V47.25ZM40.5004 52.5326C36.8466 52.5326 33.7321 51.245 31.1568 48.6697C28.5815 46.0945 27.2939 42.9799 27.2939 39.3261C27.2939 35.6723 28.5815 32.5578 31.1568 29.9825C33.7321 27.4072 36.8466 26.1196 40.5004 26.1196C44.1542 26.1196 47.2688 27.4072 49.844 29.9825C52.4193 32.5578 53.7069 35.6723 53.7069 39.3261C53.7069 42.9799 52.4193 46.0945 49.844 48.6697C47.2688 51.245 44.1542 52.5326 40.5004 52.5326ZM11.4461 15.5544H37.8591V10.2718H11.4461V15.5544ZM23.7942 47.25H6.16347C4.71075 47.25 3.46714 46.7328 2.43263 45.6983C1.39811 44.6637 0.880859 43.4201 0.880859 41.9674V4.98915C0.880859 3.53643 1.39811 2.29282 2.43263 1.25831C3.46714 0.223799 4.71075 -0.293457 6.16347 -0.293457H43.1417C44.5944 -0.293457 45.8381 0.223799 46.8726 1.25831C47.9071 2.29282 48.4243 3.53643 48.4243 4.98915V22.6859C47.1477 22.0696 45.8601 21.6074 44.5614 21.2992C43.2628 20.9911 41.9091 20.837 40.5004 20.837C40.0162 20.837 39.565 20.848 39.1468 20.87C38.7286 20.892 38.2993 20.947 37.8591 21.0351V20.837H11.4461V26.1196H27.6241C26.8317 26.868 26.1163 27.6824 25.478 28.5628C24.8397 29.4432 24.2784 30.3897 23.7942 31.4022H11.4461V36.6848H22.2094C22.1213 37.125 22.0663 37.5542 22.0443 37.9724C22.0223 38.3906 22.0113 38.8419 22.0113 39.3261C22.0113 40.7788 22.1434 42.1325 22.4075 43.3871C22.6716 44.6417 23.1339 45.9294 23.7942 47.25Z" fill="#ffff"/>
</g>
</g>
<defs>
<clipPath id="clip0_599_2">
<rect width="54" height="52.8261" fill="white"/>
</clipPath>
</defs>
</svg>
