<svg width="25" height="25" viewBox="0 0 25 25" fill="none" xmlns="http://www.w3.org/2000/svg">
<mask id="mask0_80_7" style="mask-type:alpha" maskUnits="userSpaceOnUse" x="0" y="0" width="25" height="25">
<rect x="0.560059" y="0.773926" width="24" height="24" fill="#D9D9D9"/>
</mask>
<g mask="url(#mask0_80_7)">
<path d="M7.56006 21.7739C7.01006 21.7739 6.53923 21.5781 6.14756 21.1864C5.75589 20.7948 5.56006 20.3239 5.56006 19.7739V6.77393H4.56006V4.77393H9.56006V3.77393H15.5601V4.77393H20.5601V6.77393H19.5601V19.7739C19.5601 20.3239 19.3642 20.7948 18.9726 21.1864C18.5809 21.5781 18.1101 21.7739 17.5601 21.7739H7.56006ZM17.5601 6.77393H7.56006V19.7739H17.5601V6.77393ZM9.56006 17.7739H11.5601V8.77393H9.56006V17.7739ZM13.5601 17.7739H15.5601V8.77393H13.5601V17.7739Z" fill="#1C1B1F"/>
</g>
</svg>
